<?xml version="1.0" encoding="utf-8"?>
<!-- Generator: Adobe Illustrator 16.0.0, SVG Export Plug-In . SVG Version: 6.00 Build 0)  -->
<!DOCTYPE svg PUBLIC "-//W3C//DTD SVG 1.1 Tiny//EN" "http://www.w3.org/Graphics/SVG/1.1/DTD/svg11-tiny.dtd">
<svg version="1.1" baseProfile="tiny" id="Layer_1" xmlns="http://www.w3.org/2000/svg" xmlns:xlink="http://www.w3.org/1999/xlink"
	 x="0px" y="0px" width="612px" height="792px" viewBox="0 0 612 792" xml:space="preserve">
<path fill="#9E2626" d="M418.213,156c-30-94-132-98-132-98c-33-30-209-54-245,147c-32.446,181.157,59.376,239.647,77.825,249.432
	l0.003,0.003v-0.001c2.019,1.07,3.172,1.566,3.172,1.566l-4.875-6.063c-8.259-13.913-43.809-75.828-42.63-108.833
	c1.333-37.333,16-46.667,53-42.667s126.666-15.333,163-112c0,0,78.949,27.602,104.56,97.508l7.902,47.72
	c-0.022,1.468-0.06,2.943-0.128,4.437l0.686-1.074l1.485,8.972C440.213,302,448.213,250,418.213,156z"/>
<path fill="#9E2626" d="M290.666,483.999c0,0-42.001,204.667,79.333,244c0,0-34-52,52.667-122s-20-224.667-20-224.667
	S297.333,461.333,290.666,483.999z"/>
<circle fill="#111111" cx="147.917" cy="336.875" r="23.667"/>
<path fill="#111111" d="M105.583,347.209c0,0,33.333-45.333,76-13.333c0,0-4.769-12.281-17.833-19.169
	c-13.75-7.25-21.75-3-32.5-7.25l1.5,3.25c0,0,2,7.75-12-0.75l2,4.75c0,0-0.25,6-13.5-4l3.25,9c0,0-3,2.254-22.5-6.498l8.25,15.748
	c0,0-7,4.25-22-6.5C76.25,322.457,85.916,342.461,105.583,347.209z"/>
<circle fill="#FFFFFF" cx="136.916" cy="336.875" r="8"/>
<circle fill="#111111" cx="326.916" cy="339.751" r="23.667"/>
<path fill="#111111" d="M369.249,350.085c0,0-33.333-45.333-76-13.333c0,0,4.769-12.281,17.833-19.169c13.75-7.25,21.75-3,32.5-7.25
	l-1.5,3.25c0,0-2,7.75,12-0.75l-2,4.75c0,0,0.25,6,13.5-4l-3.25,9c0,0,3,2.254,22.5-6.498l-8.25,15.748c0,0,7,4.25,22-6.5
	C398.582,325.333,388.916,345.337,369.249,350.085z"/>
<circle fill="#FFFFFF" cx="314" cy="339.751" r="8"/>
<path d="M388.915,364.882c-9.542,17-32.573,16.634-32.573,16.634c-35-11-116.5,1-116.5,1c-3.57-3.124-11.107-3.062-12.688-3.012
	c-1.581-0.05-9.118-0.112-12.688,3.012c0,0-81.5-12-116.5-1c0,0-14.04-2.167-15.956-5.662c-2.033-3.707,1.956,6.662,1.956,6.662
	s9,2,12,8c0,0,14,43.5,65.5,40s54-42.5,54-42.5s7.227-4.508,11.376-3.232v0.232c0.099-0.049,0.209-0.075,0.313-0.116
	c0.103,0.041,0.213,0.067,0.312,0.116v-0.232c4.149-1.275,11.376,3.232,11.376,3.232s2.5,39,54,42.5c51.5,3.5,65.5-40,65.5-40
	c3-6,12-8,12-8C384.998,377.599,388.915,364.882,388.915,364.882z M158.156,425.349c-32.502-0.936-47.806-29.897-47.806-29.897
	c-7.89-10.487,3.769-12.798,3.769-12.798s55.938-5.682,94.831,5.652C217.369,398.325,190.658,426.286,158.156,425.349z
	 M343.959,395.452c0,0-15.305,28.961-47.806,29.897c-32.502,0.938-59.213-27.023-50.794-37.042
	c38.894-11.334,94.831-5.652,94.831-5.652S351.848,384.964,343.959,395.452z"/>
<path fill="#9E2626" d="M241.28,432.285c-3.167-4.167-11.334-2.168-14.167,1.666c-0.245,0.332-0.444,0.596-0.624,0.829
	c-0.18-0.233-0.379-0.497-0.625-0.829c-2.833-3.834-11-5.833-14.167-1.666s-11,8.666-11,8.666
	c9.392,16.674,24.916,15.27,25.792,15.176c0.875,0.094,16.399,1.498,25.791-15.176C252.28,440.951,244.447,436.452,241.28,432.285z
	 M226.489,443.454c-6.296-0.004-7.792-0.834-7.792-0.834c1.574-1.443,5.717-1.647,7.416-1.67v0.001c0,0,0.09-0.002,0.238-0.003
	c0.05-0.001,0.094-0.001,0.138-0.001c0.043,0,0.087,0,0.137,0.001c0.148,0.001,0.238,0.003,0.238,0.003v-0.001
	c1.699,0.022,5.842,0.227,7.416,1.67C234.28,442.62,232.784,443.45,226.489,443.454z"/>
</svg>
